<svg id="cancel-appointment" enable-background="new 0 0 300 300" height="512" viewBox="0 0 300 300" width="512" xmlns="http://www.w3.org/2000/svg"><path d="m46 114v-41.134c0-8.21 6.656-14.866 14.866-14.866h178.268c8.21 0 14.866 6.656 14.866 14.866v41.134" fill="#f35cd2"/><path d="m254 122c-4.422 0-8-3.578-8-8v-41.133c0-3.789-3.078-6.867-6.867-6.867h-178.266c-3.789 0-6.867 3.078-6.867 6.867v41.133c0 4.422-3.578 8-8 8s-8-3.578-8-8v-41.133c0-12.609 10.258-22.867 22.867-22.867h178.266c12.609 0 22.867 10.258 22.867 22.867v41.133c0 4.422-3.578 8-8 8z" fill="#5d038e"/><path d="m254 114v123.148c0 11.516-9.855 20.852-22.011 20.852h-163.978c-12.156 0-22.011-9.336-22.011-20.852v-123.148h165.334" fill="#e9642c"/><path d="m231.992 266h-163.984c-16.547 0-30.008-12.945-30.008-28.852v-123.148c0-4.422 3.578-8 8-8h165.336c4.422 0 8 3.578 8 8s-3.578 8-8 8h-157.336v115.148c0 7.086 6.281 12.852 14.008 12.852h163.984c7.727 0 14.008-5.766 14.008-12.852v-123.148c0-4.422 3.578-8 8-8s8 3.578 8 8v123.148c0 15.907-13.461 28.852-30.008 28.852z" fill="#5d038e"/><path d="m118 82c-4.422 0-8-3.578-8-8v-32c0-4.422 3.578-8 8-8s8 3.578 8 8v32c0 4.422-3.578 8-8 8z" fill="#5d038e"/><path d="m46 114h104v48h-104z" fill="#fff"/><path d="m150 170h-104c-4.422 0-8-3.578-8-8v-48c0-4.422 3.578-8 8-8h104c4.422 0 8 3.578 8 8v48c0 4.422-3.578 8-8 8zm-96-16h88v-32h-88z" fill="#5d038e"/><path d="m150 114h104v48h-104z" fill="#fff"/><path d="m254 170h-104c-4.422 0-8-3.578-8-8v-48c0-4.422 3.578-8 8-8h104c4.422 0 8 3.578 8 8v48c0 4.422-3.578 8-8 8zm-96-16h88v-32h-88z" fill="#5d038e"/><path d="m46 210h104v48h-104z" fill="#fff"/><path d="m150 266h-104c-4.422 0-8-3.578-8-8v-48c0-4.422 3.578-8 8-8h104c4.422 0 8 3.578 8 8v48c0 4.422-3.578 8-8 8zm-96-16h88v-32h-88z" fill="#5d038e"/><path d="m46 162h104v48h-104z" fill="#fff"/><g fill="#5d038e"><path d="m150 218h-104c-4.422 0-8-3.578-8-8v-48c0-4.422 3.578-8 8-8h104c4.422 0 8 3.578 8 8v48c0 4.422-3.578 8-8 8zm-96-16h88v-32h-88z"/><path d="m182 82c-4.422 0-8-3.578-8-8v-32c0-4.422 3.578-8 8-8s8 3.578 8 8v32c0 4.422-3.578 8-8 8z"/><path d="m222.008 242c-2.297 0-4.57-.977-6.156-2.875l-40-48c-2.828-3.398-2.367-8.445 1.023-11.273 3.414-2.82 8.438-2.367 11.273 1.023l40 48c2.828 3.398 2.367 8.445-1.023 11.273-1.5 1.243-3.313 1.852-5.117 1.852z"/><path d="m181.992 242c-1.805 0-3.617-.609-5.117-1.852-3.391-2.828-3.852-7.875-1.023-11.273l40-48c2.836-3.391 7.867-3.844 11.273-1.023 3.391 2.828 3.852 7.875 1.023 11.273l-40 48c-1.586 1.898-3.859 2.875-6.156 2.875z"/></g></svg>